<svg width="147" height="20" viewBox="0 0 147 20" fill="none" xmlns="http://www.w3.org/2000/svg">
<path d="M50.84 10.86H53.7C53.7267 11.46 54.0133 11.9133 54.56 12.22C55.12 12.5267 55.7733 12.68 56.52 12.68C58.3067 12.68 59.2 12.0933 59.2 10.92C59.2 10.6133 59.1267 10.3467 58.98 10.12C58.8467 9.89333 58.6933 9.72667 58.52 9.62C58.3467 9.5 58.1 9.4 57.78 9.32C57.46 9.24 57.1933 9.18667 56.98 9.16C56.78 9.13333 56.5 9.10667 56.14 9.08C52.74 8.78667 51.04 7.46 51.04 5.1C51.04 3.64667 51.5467 2.55333 52.56 1.82C53.5733 1.07333 54.84 0.699999 56.36 0.699999C57.0533 0.699999 57.7 0.779999 58.3 0.94C58.9133 1.08667 59.48 1.32 60 1.64C60.52 1.96 60.9333 2.40667 61.24 2.98C61.5467 3.54 61.7 4.19333 61.7 4.94H58.9C58.82 4.40667 58.54 4.00667 58.06 3.74C57.58 3.46 57.0133 3.32 56.36 3.32C55.72 3.32 55.16 3.48 54.68 3.8C54.2133 4.10667 53.98 4.52 53.98 5.04C53.98 5.6 54.2067 6 54.66 6.24C55.1267 6.46667 55.7933 6.62667 56.66 6.72C57.5 6.8 58.2067 6.90667 58.78 7.04C59.3667 7.17333 59.9333 7.38667 60.48 7.68C61.04 7.97333 61.46 8.39333 61.74 8.94C62.02 9.47333 62.16 10.1333 62.16 10.92C62.16 11.7067 62 12.3933 61.68 12.98C61.36 13.5667 60.92 14.02 60.36 14.34C59.8133 14.66 59.22 14.8933 58.58 15.04C57.9533 15.2 57.2733 15.2867 56.54 15.3C54.9933 15.3 53.6533 14.92 52.52 14.16C51.4 13.3867 50.84 12.2867 50.84 10.86ZM73.932 15H71.112V9.42C71.1387 8.79333 70.972 8.29333 70.612 7.92C70.2654 7.54667 69.8254 7.36 69.292 7.36C68.732 7.36 68.252 7.55333 67.852 7.94C67.452 8.31333 67.252 8.82667 67.252 9.48V15H64.452V8.34C64.452 8.04667 64.4454 7.84 64.432 7.72C64.432 7.6 64.3987 7.48 64.332 7.36C64.2787 7.24 64.1854 7.16667 64.052 7.14C63.932 7.1 63.7587 7.08 63.532 7.08V5.34C65.8787 4.94 67.052 5.37333 67.052 6.64C67.3054 6.12 67.7187 5.74 68.292 5.5C68.8787 5.26 69.492 5.14 70.132 5.14C71.4254 5.14 72.3787 5.53333 72.992 6.32C73.6187 7.10667 73.932 8.14 73.932 9.42V15ZM80.8972 5.12C82.6172 5.12 83.8505 5.64 84.5972 6.68C85.3572 7.72 85.5505 9.08 85.1772 10.76H78.6372C78.7305 12.0933 79.5839 12.82 81.1972 12.94C81.7572 12.9667 82.1839 12.96 82.4772 12.92C83.3839 12.8133 84.1505 12.62 84.7772 12.34L85.0972 14.38C83.8839 14.9533 82.6372 15.24 81.3572 15.24C79.7172 15.2667 78.3839 14.8133 77.3572 13.88C76.3439 12.9467 75.8372 11.6733 75.8372 10.06C75.8639 8.47333 76.3639 7.25333 77.3372 6.4C78.3239 5.54667 79.5105 5.12 80.8972 5.12ZM80.8972 7.26C80.3372 7.26 79.8505 7.41333 79.4372 7.72C79.0239 8.01333 78.7639 8.42667 78.6572 8.96H82.8972C82.9239 8.37333 82.7439 7.94667 82.3572 7.68C81.9705 7.4 81.4839 7.26 80.8972 7.26ZM93.5933 13.52C93.3266 14.08 92.8733 14.5 92.2333 14.78C91.6066 15.0467 90.9466 15.18 90.2533 15.18C89.3199 15.18 88.5066 14.9067 87.8133 14.36C87.1333 13.8 86.7799 13.0667 86.7533 12.16C86.6999 11.0267 87.0266 10.1667 87.7333 9.58C88.4399 8.98 89.3599 8.68 90.4933 8.68C91.5466 8.68 92.3999 8.88667 93.0533 9.3V8.64C93.0533 7.72 92.2533 7.26 90.6533 7.26C89.4933 7.26 88.5666 7.45333 87.8733 7.84L87.5133 5.84C88.5266 5.36 89.7333 5.12 91.1333 5.12C94.1999 5.12 95.7333 6.32 95.7333 8.72V12.2C95.7333 12.4667 95.7333 12.6533 95.7333 12.76C95.7466 12.8667 95.7799 12.9933 95.8333 13.14C95.8866 13.2733 95.9733 13.36 96.0933 13.4C96.2266 13.44 96.4066 13.4533 96.6333 13.44L96.6533 15C96.1466 15.0933 95.6666 15.14 95.2133 15.14C94.7599 15.14 94.3733 15.0067 94.0533 14.74C93.7466 14.46 93.5933 14.0533 93.5933 13.52ZM92.9933 11.54V11.04C92.4466 10.6667 91.7799 10.48 90.9933 10.48C90.5266 10.5067 90.1466 10.6533 89.8533 10.92C89.5599 11.1733 89.4399 11.5267 89.4933 11.98C89.5199 12.3133 89.6599 12.5733 89.9133 12.76C90.1666 12.9333 90.4666 13.02 90.8133 13.02C91.3333 13.02 91.8133 12.8933 92.2533 12.64C92.7066 12.3733 92.9533 12.0067 92.9933 11.54ZM101.268 8.9H101.948C102.974 8.9 103.694 8.58667 104.108 7.96C104.521 7.32 104.728 6.44667 104.728 5.34H107.368C107.394 6.46 107.241 7.42 106.908 8.22C106.574 9.00667 105.961 9.63333 105.068 10.1L107.828 14.7V14.98H105.008L102.708 10.98C102.468 11.06 102.201 11.1 101.908 11.1H101.268V14.98H98.4875V0.38H101.268V8.9ZM116.543 7.62L122.163 0.96H123.243V15H120.243V7.42L116.723 11.82H116.343L112.823 7.42V15H109.823V0.96H110.923L116.543 7.62ZM132.187 13.52C131.92 14.08 131.467 14.5 130.827 14.78C130.2 15.0467 129.54 15.18 128.847 15.18C127.914 15.18 127.1 14.9067 126.407 14.36C125.727 13.8 125.374 13.0667 125.347 12.16C125.294 11.0267 125.62 10.1667 126.327 9.58C127.034 8.98 127.954 8.68 129.087 8.68C130.14 8.68 130.994 8.88667 131.647 9.3V8.64C131.647 7.72 130.847 7.26 129.247 7.26C128.087 7.26 127.16 7.45333 126.467 7.84L126.107 5.84C127.12 5.36 128.327 5.12 129.727 5.12C132.794 5.12 134.327 6.32 134.327 8.72V12.2C134.327 12.4667 134.327 12.6533 134.327 12.76C134.34 12.8667 134.374 12.9933 134.427 13.14C134.48 13.2733 134.567 13.36 134.687 13.4C134.82 13.44 135 13.4533 135.227 13.44L135.247 15C134.74 15.0933 134.26 15.14 133.807 15.14C133.354 15.14 132.967 15.0067 132.647 14.74C132.34 14.46 132.187 14.0533 132.187 13.52ZM131.587 11.54V11.04C131.04 10.6667 130.374 10.48 129.587 10.48C129.12 10.5067 128.74 10.6533 128.447 10.92C128.154 11.1733 128.034 11.5267 128.087 11.98C128.114 12.3133 128.254 12.5733 128.507 12.76C128.76 12.9333 129.06 13.02 129.407 13.02C129.927 13.02 130.407 12.8933 130.847 12.64C131.3 12.3733 131.547 12.0067 131.587 11.54ZM141.101 11.6H141.041L139.901 13.52L138.861 15H136.061V14.68L139.401 9.88L136.541 5.66V5.36H139.221L140.081 6.62L141.001 8.24H141.061L141.961 6.6L142.801 5.36H145.661V5.68L142.701 9.98L145.961 14.68V15H143.261L142.181 13.44L141.101 11.6Z" fill="white"/>
<line x1="1.31134e-07" y1="8.5" x2="30" y2="8.5" stroke="white" stroke-width="3"/>
</svg>
